<mxfile host="Electron" modified="2025-07-02T21:56:52.252Z" agent="Mozilla/5.0 (Windows NT 10.0; Win64; x64) AppleWebKit/537.36 (KHTML, like Gecko) draw.io/21.2.8 Chrome/112.0.5615.165 Electron/24.2.0 Safari/537.36" etag="9mLMAi3UihA2-t-2Ffxf" version="21.2.8" type="device">
  <diagram name="PÃ¡gina-1" id="zM4ovOgVnyasq4jxKyzR">
    <mxGraphModel dx="1434" dy="844" grid="1" gridSize="10" guides="1" tooltips="1" connect="1" arrows="1" fold="1" page="1" pageScale="1" pageWidth="827" pageHeight="1169" math="0" shadow="0">
      <root>
        <mxCell id="0" />
        <mxCell id="1" parent="0" />
        <mxCell id="goOd5xpuixa026erWuvr-10" style="rounded=0;orthogonalLoop=1;jettySize=auto;html=1;exitX=1;exitY=0.5;exitDx=0;exitDy=0;" edge="1" parent="1" source="goOd5xpuixa026erWuvr-1" target="goOd5xpuixa026erWuvr-11">
          <mxGeometry relative="1" as="geometry">
            <mxPoint x="340" y="510" as="targetPoint" />
          </mxGeometry>
        </mxCell>
        <mxCell id="goOd5xpuixa026erWuvr-21" style="rounded=0;orthogonalLoop=1;jettySize=auto;html=1;exitX=0.25;exitY=1;exitDx=0;exitDy=0;entryX=1;entryY=0;entryDx=0;entryDy=0;" edge="1" parent="1" source="goOd5xpuixa026erWuvr-1" target="goOd5xpuixa026erWuvr-6">
          <mxGeometry relative="1" as="geometry" />
        </mxCell>
        <mxCell id="goOd5xpuixa026erWuvr-22" style="rounded=0;orthogonalLoop=1;jettySize=auto;html=1;exitX=0;exitY=0.5;exitDx=0;exitDy=0;entryX=1;entryY=0.5;entryDx=0;entryDy=0;" edge="1" parent="1" source="goOd5xpuixa026erWuvr-1" target="goOd5xpuixa026erWuvr-5">
          <mxGeometry relative="1" as="geometry" />
        </mxCell>
        <mxCell id="goOd5xpuixa026erWuvr-24" style="rounded=0;orthogonalLoop=1;jettySize=auto;html=1;exitX=0;exitY=0;exitDx=0;exitDy=0;entryX=1;entryY=1;entryDx=0;entryDy=0;" edge="1" parent="1" source="goOd5xpuixa026erWuvr-1" target="goOd5xpuixa026erWuvr-2">
          <mxGeometry relative="1" as="geometry" />
        </mxCell>
        <mxCell id="goOd5xpuixa026erWuvr-25" style="rounded=0;orthogonalLoop=1;jettySize=auto;html=1;exitX=0.5;exitY=0;exitDx=0;exitDy=0;entryX=0.5;entryY=1;entryDx=0;entryDy=0;" edge="1" parent="1" source="goOd5xpuixa026erWuvr-1" target="goOd5xpuixa026erWuvr-3">
          <mxGeometry relative="1" as="geometry" />
        </mxCell>
        <mxCell id="goOd5xpuixa026erWuvr-1" value="usuario&amp;nbsp;" style="rounded=0;whiteSpace=wrap;html=1;" vertex="1" parent="1">
          <mxGeometry x="130" y="470" width="120" height="60" as="geometry" />
        </mxCell>
        <mxCell id="goOd5xpuixa026erWuvr-2" value="&lt;u&gt;NumUsuario&lt;br&gt;&lt;/u&gt;" style="ellipse;whiteSpace=wrap;html=1;" vertex="1" parent="1">
          <mxGeometry x="20" y="370" width="90" height="60" as="geometry" />
        </mxCell>
        <mxCell id="goOd5xpuixa026erWuvr-3" value="email" style="ellipse;whiteSpace=wrap;html=1;" vertex="1" parent="1">
          <mxGeometry x="145" y="360" width="90" height="60" as="geometry" />
        </mxCell>
        <mxCell id="goOd5xpuixa026erWuvr-5" value="Nombre" style="ellipse;whiteSpace=wrap;html=1;" vertex="1" parent="1">
          <mxGeometry y="470" width="90" height="60" as="geometry" />
        </mxCell>
        <mxCell id="goOd5xpuixa026erWuvr-6" value="Apellido" style="ellipse;whiteSpace=wrap;html=1;" vertex="1" parent="1">
          <mxGeometry x="40" y="550" width="90" height="60" as="geometry" />
        </mxCell>
        <mxCell id="goOd5xpuixa026erWuvr-12" style="rounded=0;orthogonalLoop=1;jettySize=auto;html=1;exitX=0;exitY=0.5;exitDx=0;exitDy=0;entryX=1;entryY=0.5;entryDx=0;entryDy=0;" edge="1" parent="1" source="goOd5xpuixa026erWuvr-7" target="goOd5xpuixa026erWuvr-11">
          <mxGeometry relative="1" as="geometry" />
        </mxCell>
        <mxCell id="goOd5xpuixa026erWuvr-26" style="rounded=0;orthogonalLoop=1;jettySize=auto;html=1;exitX=0.75;exitY=0;exitDx=0;exitDy=0;entryX=0;entryY=1;entryDx=0;entryDy=0;" edge="1" parent="1" source="goOd5xpuixa026erWuvr-7" target="goOd5xpuixa026erWuvr-16">
          <mxGeometry relative="1" as="geometry" />
        </mxCell>
        <mxCell id="goOd5xpuixa026erWuvr-27" style="edgeStyle=none;rounded=0;orthogonalLoop=1;jettySize=auto;html=1;exitX=1;exitY=0.25;exitDx=0;exitDy=0;entryX=0;entryY=1;entryDx=0;entryDy=0;" edge="1" parent="1" source="goOd5xpuixa026erWuvr-7" target="goOd5xpuixa026erWuvr-17">
          <mxGeometry relative="1" as="geometry" />
        </mxCell>
        <mxCell id="goOd5xpuixa026erWuvr-28" style="edgeStyle=none;rounded=0;orthogonalLoop=1;jettySize=auto;html=1;exitX=1;exitY=0.75;exitDx=0;exitDy=0;entryX=0;entryY=0;entryDx=0;entryDy=0;" edge="1" parent="1" source="goOd5xpuixa026erWuvr-7" target="goOd5xpuixa026erWuvr-18">
          <mxGeometry relative="1" as="geometry" />
        </mxCell>
        <mxCell id="goOd5xpuixa026erWuvr-33" style="edgeStyle=none;rounded=0;orthogonalLoop=1;jettySize=auto;html=1;exitX=0.75;exitY=1;exitDx=0;exitDy=0;entryX=0.5;entryY=0;entryDx=0;entryDy=0;" edge="1" parent="1" source="goOd5xpuixa026erWuvr-7" target="goOd5xpuixa026erWuvr-20">
          <mxGeometry relative="1" as="geometry" />
        </mxCell>
        <mxCell id="goOd5xpuixa026erWuvr-7" value="producto" style="rounded=0;whiteSpace=wrap;html=1;" vertex="1" parent="1">
          <mxGeometry x="635" y="470" width="120" height="60" as="geometry" />
        </mxCell>
        <mxCell id="goOd5xpuixa026erWuvr-41" style="edgeStyle=none;rounded=0;orthogonalLoop=1;jettySize=auto;html=1;exitX=0.5;exitY=1;exitDx=0;exitDy=0;entryX=1;entryY=0;entryDx=0;entryDy=0;" edge="1" parent="1" source="goOd5xpuixa026erWuvr-11" target="goOd5xpuixa026erWuvr-43">
          <mxGeometry relative="1" as="geometry">
            <mxPoint x="310" y="580" as="targetPoint" />
          </mxGeometry>
        </mxCell>
        <mxCell id="goOd5xpuixa026erWuvr-44" style="edgeStyle=none;rounded=0;orthogonalLoop=1;jettySize=auto;html=1;exitX=0.5;exitY=1;exitDx=0;exitDy=0;entryX=0.5;entryY=0;entryDx=0;entryDy=0;" edge="1" parent="1" source="goOd5xpuixa026erWuvr-11" target="goOd5xpuixa026erWuvr-42">
          <mxGeometry relative="1" as="geometry" />
        </mxCell>
        <mxCell id="goOd5xpuixa026erWuvr-45" style="edgeStyle=none;rounded=0;orthogonalLoop=1;jettySize=auto;html=1;exitX=0.5;exitY=1;exitDx=0;exitDy=0;entryX=0;entryY=0;entryDx=0;entryDy=0;" edge="1" parent="1" source="goOd5xpuixa026erWuvr-11" target="goOd5xpuixa026erWuvr-47">
          <mxGeometry relative="1" as="geometry">
            <mxPoint x="480" y="590" as="targetPoint" />
          </mxGeometry>
        </mxCell>
        <mxCell id="goOd5xpuixa026erWuvr-49" style="edgeStyle=none;rounded=0;orthogonalLoop=1;jettySize=auto;html=1;exitX=0.5;exitY=1;exitDx=0;exitDy=0;entryX=1;entryY=0;entryDx=0;entryDy=0;" edge="1" parent="1" source="goOd5xpuixa026erWuvr-11" target="goOd5xpuixa026erWuvr-48">
          <mxGeometry relative="1" as="geometry" />
        </mxCell>
        <mxCell id="goOd5xpuixa026erWuvr-53" style="edgeStyle=none;rounded=0;orthogonalLoop=1;jettySize=auto;html=1;exitX=0.5;exitY=0;exitDx=0;exitDy=0;entryX=0.5;entryY=1;entryDx=0;entryDy=0;" edge="1" parent="1" source="goOd5xpuixa026erWuvr-11" target="goOd5xpuixa026erWuvr-52">
          <mxGeometry relative="1" as="geometry" />
        </mxCell>
        <mxCell id="goOd5xpuixa026erWuvr-60" style="edgeStyle=none;rounded=0;orthogonalLoop=1;jettySize=auto;html=1;exitX=0.5;exitY=1;exitDx=0;exitDy=0;entryX=0;entryY=0;entryDx=0;entryDy=0;" edge="1" parent="1" source="goOd5xpuixa026erWuvr-11" target="goOd5xpuixa026erWuvr-59">
          <mxGeometry relative="1" as="geometry" />
        </mxCell>
        <mxCell id="goOd5xpuixa026erWuvr-11" value="Comprar" style="rhombus;whiteSpace=wrap;html=1;" vertex="1" parent="1">
          <mxGeometry x="380" y="460" width="80" height="80" as="geometry" />
        </mxCell>
        <mxCell id="goOd5xpuixa026erWuvr-16" value="Nombre" style="ellipse;whiteSpace=wrap;html=1;" vertex="1" parent="1">
          <mxGeometry x="740" y="375" width="90" height="60" as="geometry" />
        </mxCell>
        <mxCell id="goOd5xpuixa026erWuvr-17" value="CantidadEnStock" style="ellipse;whiteSpace=wrap;html=1;" vertex="1" parent="1">
          <mxGeometry x="805" y="440" width="100" height="60" as="geometry" />
        </mxCell>
        <mxCell id="goOd5xpuixa026erWuvr-18" value="Precio" style="ellipse;whiteSpace=wrap;html=1;" vertex="1" parent="1">
          <mxGeometry x="810" y="525" width="90" height="60" as="geometry" />
        </mxCell>
        <mxCell id="goOd5xpuixa026erWuvr-20" value="&lt;u&gt;CodigoDeBarra&lt;/u&gt;" style="ellipse;whiteSpace=wrap;html=1;" vertex="1" parent="1">
          <mxGeometry x="715" y="585" width="90" height="60" as="geometry" />
        </mxCell>
        <mxCell id="goOd5xpuixa026erWuvr-37" value="1..*" style="text;html=1;align=center;verticalAlign=middle;resizable=0;points=[];autosize=1;strokeColor=none;fillColor=none;" vertex="1" parent="1">
          <mxGeometry x="250" y="478" width="40" height="30" as="geometry" />
        </mxCell>
        <mxCell id="goOd5xpuixa026erWuvr-38" value="1..*" style="text;html=1;align=center;verticalAlign=middle;resizable=0;points=[];autosize=1;strokeColor=none;fillColor=none;" vertex="1" parent="1">
          <mxGeometry x="590" y="468" width="40" height="30" as="geometry" />
        </mxCell>
        <mxCell id="goOd5xpuixa026erWuvr-39" value="*..*" style="text;html=1;align=center;verticalAlign=middle;resizable=0;points=[];autosize=1;strokeColor=none;fillColor=none;" vertex="1" parent="1">
          <mxGeometry x="425" y="448" width="40" height="30" as="geometry" />
        </mxCell>
        <mxCell id="goOd5xpuixa026erWuvr-42" value="Producto" style="ellipse;whiteSpace=wrap;html=1;" vertex="1" parent="1">
          <mxGeometry x="375" y="640" width="90" height="60" as="geometry" />
        </mxCell>
        <mxCell id="goOd5xpuixa026erWuvr-43" value="NumUsuario" style="ellipse;whiteSpace=wrap;html=1;" vertex="1" parent="1">
          <mxGeometry x="270" y="630" width="90" height="60" as="geometry" />
        </mxCell>
        <mxCell id="goOd5xpuixa026erWuvr-47" value="Precio" style="ellipse;whiteSpace=wrap;html=1;" vertex="1" parent="1">
          <mxGeometry x="480" y="630" width="90" height="60" as="geometry" />
        </mxCell>
        <mxCell id="goOd5xpuixa026erWuvr-48" value="&lt;u&gt;IDPedido&lt;/u&gt;" style="ellipse;whiteSpace=wrap;html=1;" vertex="1" parent="1">
          <mxGeometry x="235" y="550" width="90" height="60" as="geometry" />
        </mxCell>
        <mxCell id="goOd5xpuixa026erWuvr-54" style="edgeStyle=none;rounded=0;orthogonalLoop=1;jettySize=auto;html=1;exitX=0.5;exitY=1;exitDx=0;exitDy=0;entryX=0.5;entryY=0;entryDx=0;entryDy=0;" edge="1" parent="1" source="goOd5xpuixa026erWuvr-50" target="goOd5xpuixa026erWuvr-52">
          <mxGeometry relative="1" as="geometry" />
        </mxCell>
        <mxCell id="goOd5xpuixa026erWuvr-56" style="edgeStyle=none;rounded=0;orthogonalLoop=1;jettySize=auto;html=1;exitX=0;exitY=0;exitDx=0;exitDy=0;entryX=1;entryY=1;entryDx=0;entryDy=0;" edge="1" parent="1" source="goOd5xpuixa026erWuvr-50" target="goOd5xpuixa026erWuvr-55">
          <mxGeometry relative="1" as="geometry" />
        </mxCell>
        <mxCell id="goOd5xpuixa026erWuvr-61" style="edgeStyle=none;rounded=0;orthogonalLoop=1;jettySize=auto;html=1;exitX=0.5;exitY=0;exitDx=0;exitDy=0;entryX=0.5;entryY=1;entryDx=0;entryDy=0;" edge="1" parent="1" source="goOd5xpuixa026erWuvr-50" target="goOd5xpuixa026erWuvr-57">
          <mxGeometry relative="1" as="geometry" />
        </mxCell>
        <mxCell id="goOd5xpuixa026erWuvr-62" style="edgeStyle=none;rounded=0;orthogonalLoop=1;jettySize=auto;html=1;exitX=1;exitY=0;exitDx=0;exitDy=0;entryX=0;entryY=1;entryDx=0;entryDy=0;" edge="1" parent="1" source="goOd5xpuixa026erWuvr-50" target="goOd5xpuixa026erWuvr-58">
          <mxGeometry relative="1" as="geometry" />
        </mxCell>
        <mxCell id="goOd5xpuixa026erWuvr-63" style="edgeStyle=none;rounded=0;orthogonalLoop=1;jettySize=auto;html=1;exitX=1;exitY=0.25;exitDx=0;exitDy=0;entryX=0;entryY=0.5;entryDx=0;entryDy=0;" edge="1" parent="1" source="goOd5xpuixa026erWuvr-50" target="goOd5xpuixa026erWuvr-64">
          <mxGeometry relative="1" as="geometry">
            <mxPoint x="540" y="250" as="targetPoint" />
          </mxGeometry>
        </mxCell>
        <mxCell id="goOd5xpuixa026erWuvr-67" style="edgeStyle=none;rounded=0;orthogonalLoop=1;jettySize=auto;html=1;exitX=0;exitY=0.25;exitDx=0;exitDy=0;entryX=1;entryY=0.5;entryDx=0;entryDy=0;" edge="1" parent="1" source="goOd5xpuixa026erWuvr-50" target="goOd5xpuixa026erWuvr-66">
          <mxGeometry relative="1" as="geometry" />
        </mxCell>
        <mxCell id="goOd5xpuixa026erWuvr-50" value="Facturacion" style="rounded=0;whiteSpace=wrap;html=1;" vertex="1" parent="1">
          <mxGeometry x="360" y="250" width="120" height="60" as="geometry" />
        </mxCell>
        <mxCell id="goOd5xpuixa026erWuvr-52" value="GenerarTicket" style="rhombus;whiteSpace=wrap;html=1;" vertex="1" parent="1">
          <mxGeometry x="380" y="350" width="80" height="80" as="geometry" />
        </mxCell>
        <mxCell id="goOd5xpuixa026erWuvr-55" value="&lt;u&gt;IDFactura&lt;/u&gt;" style="ellipse;whiteSpace=wrap;html=1;" vertex="1" parent="1">
          <mxGeometry x="270" y="140" width="90" height="60" as="geometry" />
        </mxCell>
        <mxCell id="goOd5xpuixa026erWuvr-57" value="IDPedido" style="ellipse;whiteSpace=wrap;html=1;" vertex="1" parent="1">
          <mxGeometry x="375" y="130" width="90" height="60" as="geometry" />
        </mxCell>
        <mxCell id="goOd5xpuixa026erWuvr-58" value="Tipo" style="ellipse;whiteSpace=wrap;html=1;" vertex="1" parent="1">
          <mxGeometry x="480" y="140" width="90" height="60" as="geometry" />
        </mxCell>
        <mxCell id="goOd5xpuixa026erWuvr-59" value="Tipo" style="ellipse;whiteSpace=wrap;html=1;" vertex="1" parent="1">
          <mxGeometry x="520" y="555" width="90" height="60" as="geometry" />
        </mxCell>
        <mxCell id="goOd5xpuixa026erWuvr-64" value="PrecioBruto" style="ellipse;whiteSpace=wrap;html=1;" vertex="1" parent="1">
          <mxGeometry x="565" y="200" width="90" height="60" as="geometry" />
        </mxCell>
        <mxCell id="goOd5xpuixa026erWuvr-66" value="PrecioNeto" style="ellipse;whiteSpace=wrap;html=1;" vertex="1" parent="1">
          <mxGeometry x="200" y="200" width="90" height="60" as="geometry" />
        </mxCell>
        <mxCell id="goOd5xpuixa026erWuvr-68" value="1" style="text;html=1;align=center;verticalAlign=middle;resizable=0;points=[];autosize=1;strokeColor=none;fillColor=none;" vertex="1" parent="1">
          <mxGeometry x="385" y="438" width="30" height="30" as="geometry" />
        </mxCell>
        <mxCell id="goOd5xpuixa026erWuvr-69" value="1" style="text;html=1;align=center;verticalAlign=middle;resizable=0;points=[];autosize=1;strokeColor=none;fillColor=none;" vertex="1" parent="1">
          <mxGeometry x="385" y="308" width="30" height="30" as="geometry" />
        </mxCell>
        <mxCell id="goOd5xpuixa026erWuvr-70" value="1..1" style="text;html=1;align=center;verticalAlign=middle;resizable=0;points=[];autosize=1;strokeColor=none;fillColor=none;" vertex="1" parent="1">
          <mxGeometry x="340" y="375" width="40" height="30" as="geometry" />
        </mxCell>
      </root>
    </mxGraphModel>
  </diagram>
</mxfile>
